<svg width="23" height="25" viewBox="0 0 23 25" fill="none" xmlns="http://www.w3.org/2000/svg">
<path d="M21.9647 19.6985C21.3948 18.3435 20.5678 17.1128 19.5298 16.0748C18.4949 15.0338 17.269 14.2038 15.9197 13.6307C15.9076 13.6246 15.8955 13.6216 15.8835 13.6155C17.7655 12.2509 18.989 10.0282 18.989 7.52036C18.989 3.36597 15.6357 0 11.497 0C7.3582 0 4.00489 3.36597 4.00489 7.52036C4.00489 10.0282 5.2284 12.2509 7.11048 13.6185C7.09839 13.6246 7.08631 13.6276 7.07423 13.6337C5.72082 14.2068 4.50638 15.0286 3.46413 16.0778C2.42705 17.1166 1.60019 18.3472 1.02921 19.7015C0.468277 21.0275 0.165754 22.449 0.138015 23.8893C0.137209 23.9216 0.142864 23.9538 0.154648 23.984C0.166432 24.0141 0.184106 24.0416 0.206629 24.0647C0.229152 24.0879 0.256068 24.1063 0.285791 24.1189C0.315513 24.1315 0.347442 24.1379 0.379695 24.1379H2.19229C2.32522 24.1379 2.43095 24.0318 2.43397 23.9014C2.49439 21.5604 3.4309 19.368 5.08641 17.7062C6.79931 15.9868 9.07413 15.0407 11.497 15.0407C13.9198 15.0407 16.1946 15.9868 17.9075 17.7062C19.563 19.368 20.4995 21.5604 20.56 23.9014C20.563 24.0348 20.6687 24.1379 20.8016 24.1379H22.6142C22.6465 24.1379 22.6784 24.1315 22.7081 24.1189C22.7379 24.1063 22.7648 24.0879 22.7873 24.0647C22.8098 24.0416 22.8275 24.0141 22.8393 23.984C22.8511 23.9538 22.8567 23.9216 22.8559 23.8893C22.8257 22.4398 22.5266 21.0297 21.9647 19.6985ZM11.497 12.7361C10.1103 12.7361 8.80526 12.1933 7.82343 11.2078C6.84161 10.2222 6.30085 8.91223 6.30085 7.52036C6.30085 6.12849 6.84161 4.81849 7.82343 3.83296C8.80526 2.84743 10.1103 2.30463 11.497 2.30463C12.8836 2.30463 14.1887 2.84743 15.1705 3.83296C16.1523 4.81849 16.6931 6.12849 16.6931 7.52036C16.6931 8.91223 16.1523 10.2222 15.1705 11.2078C14.1887 12.1933 12.8836 12.7361 11.497 12.7361Z" fill="black"/>
</svg>
